<svg xmlns="http://www.w3.org/2000/svg" version="1.1" xmlns:xlink="http://www.w3.org/1999/xlink" xmlns:svgjs="http://svgjs.dev/svgjs" width="27" height="32.75"><svg xmlns="http://www.w3.org/2000/svg" viewBox="0 12.100000381469727 27 32.75" data-asc="0.882"><g fill="#000000"><g fill="#000000" transform="translate(0, 0)"><path d="M17.50 34.90L17.50 33.55L14.95 33.55L14.95 25.90L27 25.90L27 42.60Q21.05 44.85 14.70 44.85Q6.15 44.85 2.95 40.70Q1.30 38.55 0.65 35.65Q0 32.75 0 28.48Q0 24.20 0.68 21.32Q1.35 18.45 3.10 16.30Q6.40 12.10 15.85 12.10Q17.80 12.10 20.93 12.50Q24.05 12.90 25.50 13.40L24 21.05Q19.95 20.35 16.68 20.35Q13.40 20.35 12.08 20.85Q10.75 21.35 10.75 22.85L10.75 37L14.05 37Q15.85 37 16.68 36.63Q17.50 36.25 17.50 34.90Z"></path></g></g></svg><style>@media (prefers-color-scheme: light) { :root { filter: none; } }
@media (prefers-color-scheme: dark) { :root { filter: none; } }
</style></svg>